<svg width="24" height="24" viewBox="0 0 24 24" fill="none" xmlns="http://www.w3.org/2000/svg">
<path d="M13.5 5.04206C19 5.25217 19 6.43369 19 12.4119C19 17.6778 19 18.7631 13.5 18.9602M8 5.02539C2 5.18183 2 6.21263 2 12.0001C2 17.7876 2 18.8184 8 18.9749" stroke="#353E50" stroke-width="1.5" stroke-linecap="round" stroke-linejoin="round"/>
<path d="M11 8L9.2 10.4C8.70557 11.0592 9.17595 12 10 12H12C12.824 12 13.2944 12.9408 12.8 13.6L11 16" stroke="#353E50" stroke-width="1.5" stroke-linecap="round" stroke-linejoin="round"/>
<path d="M19 9C21.5 9.5 22 9 22 12C22 15 21.5 14.5 19 15" stroke="#353E50" stroke-width="1.5" stroke-linecap="round" stroke-linejoin="round"/>
</svg>
