<svg width="24" height="24" viewBox="0 0 24 24" fill="none" xmlns="http://www.w3.org/2000/svg">
<path d="M10.4181 11.9725V20.3778C10.4136 20.4954 10.4437 20.6117 10.5047 20.7122C10.5656 20.8127 10.6548 20.893 10.761 20.9431C10.8673 20.9931 10.9859 21.0107 11.102 20.9936C11.2181 20.9765 11.3267 20.9255 11.4141 20.847L16.7525 17.1934C16.8285 17.1435 16.891 17.0753 16.9342 16.9952C16.9774 16.915 17 16.8253 17 16.7342C17 16.6431 16.9774 16.5534 16.9342 16.4732C16.891 16.3931 16.8285 16.325 16.7525 16.275C13.7347 14.2286 5 8.15918 5 8.15918" stroke="#353E50" stroke-width="1.5" stroke-linecap="round" stroke-linejoin="round"/>
<path d="M10.4181 12.0274V3.6221C10.4136 3.50454 10.4437 3.38825 10.5047 3.28773C10.5656 3.18722 10.6548 3.10693 10.761 3.05689C10.8673 3.00685 10.9859 2.98927 11.102 3.00635C11.2181 3.02342 11.3267 3.0744 11.4141 3.15292L16.7525 6.80654C16.8285 6.85649 16.891 6.92462 16.9342 7.00478C16.9774 7.08494 17 7.17463 17 7.26574C17 7.35686 16.9774 7.44654 16.9342 7.5267C16.891 7.60687 16.8285 7.67499 16.7525 7.72494C13.7347 9.77137 5 15.8408 5 15.8408" stroke="#353E50" stroke-width="1.5" stroke-linecap="round" stroke-linejoin="round"/>
</svg>
