<svg width="24" height="24" viewBox="0 0 24 24" fill="none" xmlns="http://www.w3.org/2000/svg">
<path d="M3 8.55C3 4 5 3 12 3C19 3 21 4 21 12C21 19 20 21 15.32 21" stroke="#353E50" stroke-width="1.5" stroke-linecap="round" stroke-linejoin="round"/>
<path d="M8.25 21C8.25 20.3434 8.12067 19.6932 7.8694 19.0866C7.61812 18.48 7.24983 17.9288 6.78553 17.4645C6.32124 17.0002 5.77005 16.6319 5.16342 16.3806C4.55679 16.1293 3.90661 16 3.25 16" stroke="#353E50" stroke-width="1.5" stroke-linecap="round" stroke-linejoin="round"/>
<path d="M11.75 21C11.7513 19.8506 11.5259 18.7122 11.0866 17.65C10.6474 16.5878 10.0029 15.6227 9.19012 14.8099C8.37734 13.9971 7.41223 13.3526 6.35004 12.9134C5.28784 12.4741 4.14944 12.2487 3 12.25" stroke="#353E50" stroke-width="1.5" stroke-linecap="round" stroke-linejoin="round"/>
<path d="M4 21V20" stroke="#353E50" stroke-width="1.5" stroke-linecap="round" stroke-linejoin="round"/>
</svg>
