<svg width="24" height="24" viewBox="0 0 24 24" fill="none" xmlns="http://www.w3.org/2000/svg">
<path d="M21 14.4706C21 20 19.5 22 12 22C4.5 22 3 20.5 3 14C3 7.5 4.5 6 12 6C19.5 6 21 7.5 21 14.4706Z" stroke="#353E50" stroke-width="1.5" stroke-linecap="round" stroke-linejoin="round"/>
<path d="M20.9775 13C20.9775 15.5 20 17 12 17C3.99997 17 3.00888 15.5 3.00888 13" stroke="#353E50" stroke-width="1.5" stroke-linecap="round" stroke-linejoin="round"/>
<path d="M14 14L10 14" stroke="#353E50" stroke-width="1.5" stroke-linecap="round" stroke-linejoin="round"/>
<path d="M8 6C8 4 8.66667 3 12 3C15.3333 3 16 4 16 6" stroke="#353E50" stroke-width="1.5" stroke-linecap="round" stroke-linejoin="round"/>
</svg>
