<svg width="24" height="24" viewBox="0 0 24 24" fill="none" xmlns="http://www.w3.org/2000/svg">
<path d="M15.5 12.88L8.73 20.08C8.45856 20.3705 8.1303 20.602 7.7656 20.7603C7.4009 20.9186 7.00756 21.0002 6.61 21H4C3.73478 21 3.48043 20.8946 3.29289 20.7071C3.10536 20.5196 3 20.2652 3 20V17.8C2.99993 17.4153 3.07587 17.0344 3.22346 16.6792C3.37105 16.324 3.58737 16.0014 3.86 15.73L11.12 8.5L15.5 12.88Z" stroke="#353E50" stroke-width="1.5" stroke-linecap="round" stroke-linejoin="round"/>
<path d="M20.11 8.19003L18.11 10.19L18.66 10.74C18.9366 11.1073 19.0722 11.5616 19.0422 12.0204C19.0122 12.4791 18.8186 12.9119 18.4965 13.24C18.1745 13.5681 17.7454 13.7698 17.2872 13.8083C16.8291 13.8469 16.3724 13.7197 16 13.45L15.46 12.9L10.56 8.00003C10.2931 7.73292 10.1114 7.39269 10.0378 7.02234C9.9642 6.65199 10.002 6.26813 10.1465 5.91926C10.291 5.5704 10.5356 5.27218 10.8495 5.06229C11.1634 4.8524 11.5324 4.74026 11.91 4.74003C12.4179 4.73829 12.9061 4.93576 13.27 5.29003L13.82 5.85003L15.82 3.85003C16.3902 3.27982 17.1636 2.95947 17.97 2.95947C18.7764 2.95947 19.5498 3.27982 20.12 3.85003C20.6902 4.42025 21.0106 5.19363 21.0106 6.00003C21.0106 6.80644 20.6902 7.57982 20.12 8.15003L20.11 8.19003Z" stroke="#353E50" stroke-width="1.5" stroke-linecap="round" stroke-linejoin="round"/>
</svg>
