<svg width="24" height="24" viewBox="0 0 24 24" fill="none" xmlns="http://www.w3.org/2000/svg">
<path d="M7 21H17" stroke="#353E50" stroke-width="1.5" stroke-linecap="round" stroke-linejoin="round"/>
<path d="M20.25 10C20.25 11.7734 20.2482 13.022 20.1169 13.9408C19.9881 14.8425 19.7541 15.2689 19.4145 15.533C19.0349 15.8283 18.3821 16.0359 17.1386 16.1434C15.913 16.2493 14.2643 16.25 12 16.25V17.75C14.2357 17.75 15.962 17.7507 17.2677 17.6378C18.5554 17.5266 19.5901 17.2967 20.3355 16.717C21.1209 16.1061 21.4494 15.22 21.6018 14.1529C21.7518 13.103 21.75 11.7266 21.75 10H20.25ZM12 16.25C9.7357 16.25 8.08702 16.2493 6.86145 16.1434C5.61787 16.0359 4.96513 15.8283 4.58546 15.533C4.24589 15.2689 4.0119 14.8425 3.88309 13.9408C3.75182 13.022 3.75 11.7734 3.75 10H2.25C2.25 11.7266 2.24818 13.103 2.39816 14.1529C2.5506 15.22 2.87911 16.1061 3.66454 16.717C4.40987 17.2967 5.44463 17.5266 6.7323 17.6378C8.03798 17.7507 9.7643 17.75 12 17.75V16.25ZM3.75 10C3.75 8.22658 3.75182 6.97803 3.88309 6.05919C4.0119 5.15752 4.24589 4.73112 4.58546 4.46701C4.96513 4.17171 5.61787 3.96406 6.86145 3.85659C8.08702 3.75068 9.7357 3.75 12 3.75V2.25C9.7643 2.25 8.03798 2.24932 6.7323 2.36216C5.44463 2.47344 4.40987 2.70329 3.66454 3.28299C2.87911 3.89388 2.5506 4.77998 2.39816 5.84706C2.24818 6.89697 2.25 8.27342 2.25 10H3.75ZM12 3.75C14.2643 3.75 15.913 3.75068 17.1386 3.85659C18.3821 3.96406 19.0349 4.17171 19.4145 4.46701C19.7541 4.73112 19.9881 5.15752 20.1169 6.05919C20.2482 6.97803 20.25 8.22658 20.25 10H21.75C21.75 8.27342 21.7518 6.89697 21.6018 5.84706C21.4494 4.77998 21.1209 3.89388 20.3355 3.28299C19.5901 2.70329 18.5554 2.47344 17.2677 2.36216C15.962 2.24932 14.2357 2.25 12 2.25V3.75Z" fill="#353E50"/>
<path d="M8 21C8.36002 20.9783 8.71114 20.8638 9.02725 20.6651C9.34336 20.4663 9.61634 20.1885 9.82589 19.8522C10.0354 19.5159 10.1762 19.1298 10.2376 18.7226C10.2991 18.3153 10.2797 17.8975 10.1808 17.5" stroke="#353E50" stroke-width="1.5" stroke-linecap="round" stroke-linejoin="round"/>
<path d="M16 21C15.64 20.9783 15.2889 20.8638 14.9728 20.6651C14.6567 20.4663 14.3837 20.1885 14.1741 19.8522C13.9646 19.5159 13.8239 19.1298 13.7624 18.7226C13.7009 18.3153 13.7204 17.8975 13.8192 17.5" stroke="#353E50" stroke-width="1.5" stroke-linecap="round" stroke-linejoin="round"/>
</svg>
