<svg width="24" height="24" viewBox="0 0 24 24" fill="none" xmlns="http://www.w3.org/2000/svg">
<path d="M12 3C15.45 3 17.69 3.49 19.07 4.82C20.45 6.15 21 8.45 21 12C21 15.37 20.54 17.58 19.27 19C18 20.42 15.63 21 12 21C8.37 21 6 20.44 4.66 18.89C3.45 17.5 3 15.31 3 12C3 8.5 3.5 6.25 4.87 4.88C6.24 3.51 8.5 3 12 3Z" stroke="#353E50" stroke-width="1.5" stroke-linecap="round" stroke-linejoin="round"/>
<path d="M12 7V17" stroke="#353E50" stroke-width="1.5" stroke-linecap="round" stroke-linejoin="round"/>
<path d="M8 13L12 17L16 13" stroke="#353E50" stroke-width="1.5" stroke-linecap="round" stroke-linejoin="round"/>
</svg>
