<svg width="24" height="24" viewBox="0 0 24 24" fill="none" xmlns="http://www.w3.org/2000/svg">
<path d="M12 21C16.9706 21 21 16.9706 21 12C21 7.02944 16.9706 3 12 3C7.02944 3 3 7.02944 3 12C3 16.9706 7.02944 21 12 21Z" stroke="#353E50" stroke-width="1.5" stroke-linecap="round" stroke-linejoin="round"/>
<path d="M3.5 10C7.5 11.5 4.63639 14.6173 7.5 15C11.99 15.6 9.5 20.5 9.5 20.5" stroke="#353E50" stroke-width="1.5" stroke-linecap="round" stroke-linejoin="round"/>
<path d="M18 5.5C16 5.50003 14 5 13.2419 6.69459C12.742 7.69459 11.5 10.5 13.5001 11.5C14.7401 12.12 15.38 12.28 16.5 13C18 13.9643 17.5001 17.5 18.742 17.6947" stroke="#353E50" stroke-width="1.5" stroke-linecap="round" stroke-linejoin="round"/>
</svg>
