<svg width="24" height="24" viewBox="0 0 24 24" fill="none" xmlns="http://www.w3.org/2000/svg">
<path d="M7.40002 10.7544H12.4M7.40002 13.209H12.4M14.9 15.909C14.2334 16.2363 13.5667 16.3999 12.8167 16.3999C10.3167 16.3999 8.23336 14.3544 8.23336 11.8999C8.23336 9.44536 10.3167 7.3999 12.8167 7.3999C13.5667 7.3999 14.2334 7.56354 14.9 7.89081" stroke="#353E50" stroke-width="1.5" stroke-miterlimit="10" stroke-linecap="round" stroke-linejoin="round"/>
<path d="M12 3C7.02944 3 3 7.02944 3 12C3 16.9706 7.02944 21 12 21C16.9706 21 21 16.9706 21 12C21 7.02944 16.9706 3 12 3Z" stroke="#353E50" stroke-width="1.5" stroke-linecap="round" stroke-linejoin="round"/>
</svg>
