<svg width="24" height="24" viewBox="0 0 24 24" fill="none" xmlns="http://www.w3.org/2000/svg">
<path d="M8 3L12 8" stroke="#353E50" stroke-width="1.5" stroke-linecap="round" stroke-linejoin="round"/>
<path d="M16 3L12 8" stroke="#353E50" stroke-width="1.5" stroke-linecap="round" stroke-linejoin="round"/>
<path d="M3 8H21" stroke="#353E50" stroke-width="1.5" stroke-linecap="round" stroke-linejoin="round"/>
<path d="M21.4795 9.17003L12.0097 21L2.5398 9.17003C2.38503 8.9889 2.29999 8.75838 2.29999 8.52003C2.29999 8.28168 2.38503 8.05116 2.5398 7.87003L6.70534 3.33003C6.79986 3.22518 6.91549 3.14156 7.04463 3.08468C7.17376 3.02781 7.31346 2.99895 7.45454 3.00003H16.5648C16.7059 2.99895 16.8456 3.02781 16.9747 3.08468C17.1038 3.14156 17.2195 3.22518 17.314 3.33003L21.4396 7.87003C21.6 8.04635 21.6922 8.27426 21.6995 8.51264C21.7068 8.75102 21.6288 8.98417 21.4795 9.17003Z" stroke="#353E50" stroke-width="1.5" stroke-linecap="round" stroke-linejoin="round"/>
</svg>
