<svg width="24" height="24" viewBox="0 0 24 24" fill="none" xmlns="http://www.w3.org/2000/svg">
<path d="M4 15V18C3.73478 18 3.48043 17.921 3.29289 17.7803C3.10536 17.6397 3 17.4489 3 17.25V15.75C3 15.5511 3.10536 15.3603 3.29289 15.2197C3.48043 15.079 3.73478 15 4 15V15Z" stroke="#353E50" stroke-width="1.5" stroke-linecap="round" stroke-linejoin="round"/>
<path d="M20 18V15C20.2652 15 20.5196 15.079 20.7071 15.2197C20.8946 15.3603 21 15.5511 21 15.75V17.25C21 17.4489 20.8946 17.6397 20.7071 17.7803C20.5196 17.921 20.2652 18 20 18Z" stroke="#353E50" stroke-width="1.5" stroke-linecap="round" stroke-linejoin="round"/>
<path d="M6 13V10C6 8.4087 6.63214 6.88258 7.75736 5.75736C8.88258 4.63214 10.4087 4 12 4C13.5913 4 15.1174 4.63214 16.2426 5.75736C17.3679 6.88258 18 8.4087 18 10V13" stroke="#353E50" stroke-width="1.5" stroke-linecap="round" stroke-linejoin="round"/>
<path d="M7.25 16.5C7.25 17.1338 7.2496 17.6356 7.22059 18.0491C7.19121 18.4677 7.13595 18.7224 7.06464 18.8829C7.00695 19.0127 6.94247 19.0762 6.836 19.1265C6.69873 19.1913 6.45096 19.25 6 19.25V20.75C6.54904 20.75 7.05127 20.6837 7.4765 20.4829C7.93253 20.2675 8.24305 19.9248 8.43536 19.4921C8.61405 19.0901 8.68379 18.6261 8.71691 18.1541C8.7504 17.6769 8.75 17.1162 8.75 16.5H7.25ZM6 19.25C5.54904 19.25 5.30127 19.1913 5.164 19.1265C5.05753 19.0762 4.99305 19.0127 4.93536 18.8829C4.86405 18.7224 4.80879 18.4677 4.77941 18.0491C4.7504 17.6356 4.75 17.1338 4.75 16.5H3.25C3.25 17.1162 3.2496 17.6769 3.28309 18.1541C3.31621 18.6261 3.38595 19.0901 3.56464 19.4921C3.75695 19.9248 4.06747 20.2675 4.5235 20.4829C4.94873 20.6837 5.45096 20.75 6 20.75V19.25ZM4.75 16.5C4.75 15.8662 4.7504 15.3644 4.77941 14.9509C4.80879 14.5323 4.86405 14.2776 4.93536 14.1171C4.99305 13.9873 5.05753 13.9238 5.164 13.8735C5.30127 13.8087 5.54904 13.75 6 13.75V12.25C5.45096 12.25 4.94873 12.3163 4.5235 12.5171C4.06747 12.7325 3.75695 13.0752 3.56464 13.5079C3.38595 13.9099 3.31621 14.3739 3.28309 14.8459C3.2496 15.3231 3.25 15.8838 3.25 16.5H4.75ZM6 13.75C6.45096 13.75 6.69873 13.8087 6.836 13.8735C6.94247 13.9238 7.00695 13.9873 7.06464 14.1171C7.13595 14.2776 7.19121 14.5323 7.22059 14.9509C7.2496 15.3644 7.25 15.8662 7.25 16.5H8.75C8.75 15.8838 8.7504 15.3231 8.71691 14.8459C8.68379 14.3739 8.61405 13.9099 8.43536 13.5079C8.24305 13.0752 7.93253 12.7325 7.4765 12.5171C7.05127 12.3163 6.54904 12.25 6 12.25V13.75Z" fill="#353E50"/>
<path d="M19.25 16.5C19.25 17.1338 19.2496 17.6356 19.2206 18.0491C19.1912 18.4677 19.136 18.7224 19.0646 18.8829C19.007 19.0127 18.9425 19.0762 18.836 19.1265C18.6987 19.1913 18.451 19.25 18 19.25V20.75C18.549 20.75 19.0513 20.6837 19.4765 20.4829C19.9325 20.2675 20.243 19.9248 20.4354 19.4921C20.614 19.0901 20.6838 18.6261 20.7169 18.1541C20.7504 17.6769 20.75 17.1162 20.75 16.5H19.25ZM18 19.25C17.549 19.25 17.3013 19.1913 17.164 19.1265C17.0575 19.0762 16.993 19.0127 16.9354 18.8829C16.864 18.7224 16.8088 18.4677 16.7794 18.0491C16.7504 17.6356 16.75 17.1338 16.75 16.5H15.25C15.25 17.1162 15.2496 17.6769 15.2831 18.1541C15.3162 18.6261 15.386 19.0901 15.5646 19.4921C15.757 19.9248 16.0675 20.2675 16.5235 20.4829C16.9487 20.6837 17.451 20.75 18 20.75V19.25ZM16.75 16.5C16.75 15.8662 16.7504 15.3644 16.7794 14.9509C16.8088 14.5323 16.864 14.2776 16.9354 14.1171C16.993 13.9873 17.0575 13.9238 17.164 13.8735C17.3013 13.8087 17.549 13.75 18 13.75V12.25C17.451 12.25 16.9487 12.3163 16.5235 12.5171C16.0675 12.7325 15.757 13.0752 15.5646 13.5079C15.386 13.9099 15.3162 14.3739 15.2831 14.8459C15.2496 15.3231 15.25 15.8838 15.25 16.5H16.75ZM18 13.75C18.451 13.75 18.6987 13.8087 18.836 13.8735C18.9425 13.9238 19.007 13.9873 19.0646 14.1171C19.136 14.2776 19.1912 14.5323 19.2206 14.9509C19.2496 15.3644 19.25 15.8662 19.25 16.5H20.75C20.75 15.8838 20.7504 15.3231 20.7169 14.8459C20.6838 14.3739 20.614 13.9099 20.4354 13.5079C20.243 13.0752 19.9325 12.7325 19.4765 12.5171C19.0513 12.3163 18.549 12.25 18 12.25V13.75Z" fill="#353E50"/>
</svg>
