<svg width="24" height="24" viewBox="0 0 24 24" fill="none" xmlns="http://www.w3.org/2000/svg">
<path d="M21 16.5C21 21 20.5 21 12 21C3.5 21 3 21 3 16.5C3.00003 14.3587 3 11.5 3 9.5C3 7.58271 3.919 7.50342 11.0429 3.53568C11.6374 3.2046 12.3678 3.19492 12.9696 3.51226C20.5387 7.50312 21 7.57895 21 9.5C21 13.2601 21 13.3587 21 16.5Z" stroke="#353E50" stroke-width="1.5" stroke-linecap="round" stroke-linejoin="round"/>
<path d="M9 20.5V17.5C9 16.9477 9.44772 16.5 10 16.5H14C14.5523 16.5 15 16.9477 15 17.5V20.5" stroke="#353E50" stroke-width="1.5" stroke-linecap="round"/>
</svg>
