<svg width="24" height="24" viewBox="0 0 24 24" fill="none" xmlns="http://www.w3.org/2000/svg">
<path d="M21 21V3" stroke="#353E50" stroke-width="1.5" stroke-linecap="round" stroke-linejoin="round"/>
<path d="M10 21V3" stroke="#353E50" stroke-width="1.5" stroke-linecap="round" stroke-linejoin="round"/>
<path d="M6 7H4C3.44772 7 3 7.44772 3 8V16C3 16.5523 3.44772 17 4 17H6C6.55228 17 7 16.5523 7 16V8C7 7.44772 6.55228 7 6 7Z" stroke="#353E50" stroke-width="1.5" stroke-linecap="round" stroke-linejoin="round"/>
<path d="M14 6V18C14 18.5523 14.4477 19 15 19H17C17.5523 19 18 18.5523 18 18V6C18 5.44771 17.5523 5 17 5H15C14.4477 5 14 5.44771 14 6Z" stroke="#353E50" stroke-width="1.5" stroke-linecap="round" stroke-linejoin="round"/>
</svg>
