<svg width="24" height="24" viewBox="0 0 24 24" fill="none" xmlns="http://www.w3.org/2000/svg">
<path d="M3 3V21" stroke="#353E50" stroke-width="1.5" stroke-linecap="round" stroke-linejoin="round"/>
<path d="M14 3V21" stroke="#353E50" stroke-width="1.5" stroke-linecap="round" stroke-linejoin="round"/>
<path d="M20 7H18C17.4477 7 17 7.44772 17 8V16C17 16.5523 17.4477 17 18 17H20C20.5523 17 21 16.5523 21 16V8C21 7.44772 20.5523 7 20 7Z" stroke="#353E50" stroke-width="1.5" stroke-linecap="round" stroke-linejoin="round"/>
<path d="M10 18V6C10 5.44772 9.55228 5 9 5H7C6.44772 5 6 5.44772 6 6V18C6 18.5523 6.44772 19 7 19H9C9.55228 19 10 18.5523 10 18Z" stroke="#353E50" stroke-width="1.5" stroke-linecap="round" stroke-linejoin="round"/>
</svg>
