<svg width="24" height="24" viewBox="0 0 24 24" fill="none" xmlns="http://www.w3.org/2000/svg">
<path d="M21.5 7.5C21.5 7.73 21.09 8.13 20.44 8.61C18.469 9.98231 16.3446 11.12 14.11 12C13.4369 12.2753 12.725 12.4439 12 12.5C11.275 12.4439 10.5631 12.2753 9.89 12C7.65535 11.12 5.53099 9.98231 3.56 8.61C2.91 8.13 2.5 7.73 2.5 7.5C2.5 7.27 2.91 6.87 3.56 6.39C5.53099 5.01769 7.65535 3.88 9.89 3C10.5631 2.72475 11.275 2.55606 12 2.5C12.725 2.55606 13.4369 2.72475 14.11 3C16.3428 3.86738 18.4671 4.99161 20.44 6.35C21.09 6.87 21.5 7.27 21.5 7.5Z" stroke="#353E50" stroke-width="1.5" stroke-linecap="round" stroke-linejoin="round"/>
<path d="M21.5 17.5C20.44 18.5 14.11 21.5 12 21.5C9.89 21.5 3.56 18.5 2.5 17.5" stroke="#353E50" stroke-width="1.5" stroke-linecap="round" stroke-linejoin="round"/>
<path d="M21.5 13C20.44 14 14.11 17 12 17C9.89 17 3.56 14 2.5 13" stroke="#353E50" stroke-width="1.5" stroke-linecap="round" stroke-linejoin="round"/>
</svg>
