<svg width="24" height="24" viewBox="0 0 24 24" fill="none" xmlns="http://www.w3.org/2000/svg">
<path d="M3 9.55C3 4 5 3 12 3C19 3 21 4 21 12C21 19 20 21 14.32 21" stroke="#353E50" stroke-width="1.5" stroke-linecap="round" stroke-linejoin="round"/>
<path d="M3 17.5C3 16.1 3.17111 15.2289 3.7 14.7C4.22889 14.1711 5.1 14 6.5 14C7.9 14 8.77111 14.1789 9.3 14.7C9.82889 15.2211 10 16.1 10 17.5C10 18.9 9.82111 19.7711 9.3 20.3C8.77889 20.8289 7.9 21 6.5 21C5.1 21 4.28333 20.8367 3.77778 20.3467C3.27222 19.8567 3 18.9467 3 17.5Z" stroke="#353E50" stroke-width="1.5" stroke-linecap="round" stroke-linejoin="round"/>
</svg>
