<svg width="24" height="24" viewBox="0 0 24 24" fill="none" xmlns="http://www.w3.org/2000/svg">
<path d="M5 21C6.10457 21 7 20.1046 7 19C7 17.8954 6.10457 17 5 17C3.89543 17 3 17.8954 3 19C3 20.1046 3.89543 21 5 21Z" stroke="#353E50" stroke-width="1.5" stroke-linecap="round" stroke-linejoin="round"/>
<path d="M17 18C18.1046 18 19 17.1046 19 16C19 14.8954 18.1046 14 17 14C15.8954 14 15 14.8954 15 16C15 17.1046 15.8954 18 17 18Z" stroke="#353E50" stroke-width="1.5" stroke-linecap="round" stroke-linejoin="round"/>
<path d="M7 10L19 7" stroke="#353E50" stroke-width="1.5" stroke-linecap="round" stroke-linejoin="round"/>
<path d="M7.00004 19V7.13159C6.99738 6.67695 7.145 6.23418 7.41991 5.8722C7.69481 5.51023 8.08159 5.24935 8.52004 5.13018L16.52 3.05871C16.8195 2.98448 17.1321 2.98059 17.4333 3.04734C17.7345 3.11409 18.0162 3.24967 18.2564 3.44349C18.4966 3.6373 18.6887 3.88409 18.8177 4.16454C18.9467 4.445 19.0091 4.75152 19 5.06013V15.9979" stroke="#353E50" stroke-width="1.5" stroke-linecap="round" stroke-linejoin="round"/>
</svg>
