<svg width="24" height="24" viewBox="0 0 24 24" fill="none" xmlns="http://www.w3.org/2000/svg">
<path d="M5.18447 11.2842C4.76132 11.0636 4.28423 10.968 3.8089 11.0087C3.33357 11.0494 2.87961 11.2247 2.5 11.5141V6.8162C2.5 6.60147 2.58516 6.39553 2.73676 6.24369C2.88835 6.09186 3.09395 6.00655 3.30833 6.00655H7.73921C7.59865 5.67806 7.52617 5.3244 7.52617 4.96701C7.52617 4.60962 7.59865 4.25595 7.73921 3.92746C7.93898 3.42966 8.31586 3.02369 8.79703 2.78796C9.17942 2.58718 9.60698 2.48838 10.0385 2.50109C10.4701 2.51379 10.8911 2.63757 11.2611 2.86051C11.631 3.08345 11.9375 3.39803 12.1509 3.77397C12.3642 4.14991 12.4774 4.57455 12.4794 5.00699C12.4814 5.35132 12.41 5.6921 12.2699 6.00655H16.6608C16.767 6.00655 16.8721 6.0275 16.9702 6.06818C17.0682 6.10887 17.1573 6.16851 17.2324 6.24369C17.3075 6.31888 17.367 6.40813 17.4076 6.50636C17.4483 6.60459 17.4692 6.70988 17.4692 6.8162V11.2143C17.7971 11.0735 18.1502 11.0009 18.507 11.0009C18.8638 11.0009 19.2169 11.0735 19.5449 11.2143C20.0601 11.4177 20.478 11.8112 20.7125 12.3138C20.9141 12.6991 21.0127 13.1301 20.9987 13.5648C20.9846 13.9996 20.8584 14.4233 20.6323 14.7947C20.4062 15.1661 20.088 15.4725 19.7085 15.6841C19.3291 15.8957 18.9014 16.0053 18.4671 16.0022C18.1233 16.0042 17.7831 15.9326 17.4692 15.7923V20.1904C17.4692 20.4051 17.384 20.611 17.2324 20.7629C17.0808 20.9147 16.8752 21 16.6608 21H12.2699C12.4223 20.6471 12.4934 20.2644 12.4778 19.8802C12.4623 19.496 12.3605 19.1203 12.1801 18.781C11.9435 18.332 11.5592 17.9789 11.0923 17.7814C10.7129 17.599 10.2938 17.5149 9.87355 17.5367C9.45325 17.5586 9.04516 17.6858 8.68666 17.9066C8.32817 18.1274 8.03073 18.4348 7.82161 18.8006C7.61249 19.1664 7.49838 19.579 7.48972 20.0004C7.50436 20.3471 7.58924 20.6872 7.73921 21H3.30833C3.09395 21 2.88835 20.9147 2.73676 20.7629C2.58516 20.611 2.5 20.4051 2.5 20.1904V15.4924C2.92883 15.8237 3.45535 16.003 3.99692 16.0022C4.42108 16.0002 4.83785 15.8907 5.20843 15.684C5.57901 15.4773 5.89137 15.18 6.11645 14.8199C6.34153 14.4598 6.47201 14.0485 6.49576 13.6243C6.51951 13.2001 6.43575 12.7768 6.25227 12.3938C6.03718 11.91 5.65924 11.5173 5.18447 11.2842V11.2842Z" stroke="#353E50" stroke-width="1.5" stroke-linecap="round" stroke-linejoin="round"/>
</svg>
