<svg width="24" height="24" viewBox="0 0 24 24" fill="none" xmlns="http://www.w3.org/2000/svg">
<path d="M19.89 19.55L17.89 16.46C17.7996 16.3192 17.6754 16.2033 17.5286 16.1229C17.3818 16.0425 17.2173 16.0003 17.05 16H6.92995C6.76264 16.0003 6.59806 16.0425 6.45131 16.1229C6.30455 16.2033 6.18031 16.3192 6.08996 16.46L4.08996 19.55C4.01245 19.7037 3.97595 19.8749 3.984 20.0469C3.99205 20.2189 4.04437 20.3859 4.1359 20.5317C4.22742 20.6776 4.35505 20.7973 4.50643 20.8793C4.65781 20.9614 4.8278 21.0029 4.99995 21H19C19.1704 20.9995 19.3379 20.9554 19.4866 20.8719C19.6352 20.7885 19.76 20.6684 19.8492 20.5231C19.9384 20.3778 19.9889 20.2122 19.9961 20.0419C20.0032 19.8715 19.9667 19.7022 19.89 19.55V19.55Z" stroke="#353E50" stroke-width="1.5" stroke-linecap="round" stroke-linejoin="round"/>
<path d="M19.89 4.45015L17.89 7.54015C17.7996 7.68097 17.6754 7.79688 17.5286 7.87724C17.3818 7.95761 17.2173 7.99987 17.05 8.00015H6.92995C6.76264 7.99987 6.59806 7.95761 6.45131 7.87724C6.30455 7.79688 6.18031 7.68097 6.08996 7.54015L4.08996 4.45015C4.01245 4.2964 3.97595 4.12524 3.984 3.95325C3.99205 3.78126 4.04437 3.61426 4.1359 3.46843C4.22742 3.32259 4.35505 3.20285 4.50643 3.12081C4.65781 3.03878 4.8278 2.99721 4.99995 3.00015H19C19.1704 3.00066 19.3379 3.04474 19.4866 3.12821C19.6352 3.21167 19.76 3.33175 19.8492 3.47703C19.9384 3.62231 19.9889 3.78797 19.9961 3.95829C20.0032 4.1286 19.9667 4.29792 19.89 4.45015Z" stroke="#353E50" stroke-width="1.5" stroke-linecap="round" stroke-linejoin="round"/>
<path d="M3 12H6" stroke="#353E50" stroke-width="1.5" stroke-linecap="round" stroke-linejoin="round"/>
<path d="M10 12H14" stroke="#353E50" stroke-width="1.5" stroke-linecap="round" stroke-linejoin="round"/>
<path d="M18 12H21" stroke="#353E50" stroke-width="1.5" stroke-linecap="round" stroke-linejoin="round"/>
</svg>
