<svg width="24" height="24" viewBox="0 0 24 24" fill="none" xmlns="http://www.w3.org/2000/svg">
<path d="M4.45002 19.89L7.54002 17.89C7.67804 17.8015 7.79219 17.6804 7.8724 17.5374C7.95262 17.3944 7.99645 17.2339 8.00002 17.07V6.92995C7.99974 6.76264 7.95749 6.59806 7.87712 6.45131C7.79676 6.30455 7.68085 6.18031 7.54002 6.08996L4.45002 4.08996C4.29628 4.01245 4.12512 3.97595 3.95313 3.984C3.78114 3.99205 3.61414 4.04437 3.4683 4.1359C3.32247 4.22742 3.20273 4.35505 3.12069 4.50643C3.03865 4.65781 2.99709 4.8278 3.00002 4.99995V19C3.00054 19.1704 3.04462 19.3379 3.12809 19.4866C3.21155 19.6352 3.33162 19.76 3.47691 19.8492C3.62219 19.9384 3.78785 19.9889 3.95817 19.9961C4.12848 20.0032 4.29779 19.9667 4.45002 19.89V19.89Z" stroke="#353E50" stroke-width="1.5" stroke-linecap="round" stroke-linejoin="round"/>
<path d="M19.55 19.89L16.46 17.89C16.3192 17.7996 16.2033 17.6754 16.1229 17.5286C16.0425 17.3818 16.0003 17.2173 16 17.05V6.92995C16.0003 6.76264 16.0425 6.59806 16.1229 6.45131C16.2033 6.30455 16.3192 6.18031 16.46 6.08996L19.55 4.08996C19.7037 4.01245 19.8749 3.97595 20.0469 3.984C20.2189 3.99205 20.3859 4.04437 20.5317 4.1359C20.6776 4.22742 20.7973 4.35505 20.8793 4.50643C20.9614 4.65781 21.0029 4.8278 21 4.99995V19C20.9995 19.1704 20.9554 19.3379 20.8719 19.4866C20.7885 19.6352 20.6684 19.76 20.5231 19.8492C20.3778 19.9384 20.2122 19.9889 20.0419 19.9961C19.8715 20.0032 19.7022 19.9667 19.55 19.89V19.89Z" stroke="#353E50" stroke-width="1.5" stroke-linecap="round" stroke-linejoin="round"/>
<path d="M12 3V6" stroke="#353E50" stroke-width="1.5" stroke-linecap="round" stroke-linejoin="round"/>
<path d="M12 10V14" stroke="#353E50" stroke-width="1.5" stroke-linecap="round" stroke-linejoin="round"/>
<path d="M12 18V21" stroke="#353E50" stroke-width="1.5" stroke-linecap="round" stroke-linejoin="round"/>
</svg>
