<svg width="24" height="24" viewBox="0 0 24 24" fill="none" xmlns="http://www.w3.org/2000/svg">
<path d="M9 15H3V21" stroke="#353E50" stroke-width="1.5" stroke-linecap="round" stroke-linejoin="round"/>
<path d="M21 13C20.753 15.2097 19.6968 17.2497 18.035 18.7269C16.3732 20.204 14.2234 21.0138 12 21" stroke="#353E50" stroke-width="1.5" stroke-linecap="round" stroke-linejoin="round"/>
<path d="M3.51001 15C4.13066 16.7555 5.2805 18.2752 6.80107 19.3498C8.32163 20.4244 10.1381 21.001 12 21" stroke="#353E50" stroke-width="1.5" stroke-linecap="round" stroke-linejoin="round"/>
<path d="M15 9H21V3" stroke="#353E50" stroke-width="1.5" stroke-linecap="round" stroke-linejoin="round"/>
<path d="M3.05005 11.08C3.27772 8.86449 4.31877 6.81209 5.97192 5.31964C7.62507 3.82719 9.77287 3.00071 12 3" stroke="#353E50" stroke-width="1.5" stroke-linecap="round" stroke-linejoin="round"/>
<path d="M20.49 9C19.8693 7.24453 18.7195 5.72477 17.1989 4.65017C15.6784 3.57557 13.862 2.99903 12 3" stroke="#353E50" stroke-width="1.5" stroke-linecap="round" stroke-linejoin="round"/>
</svg>
