<svg width="24" height="24" viewBox="0 0 24 24" fill="none" xmlns="http://www.w3.org/2000/svg">
<path d="M12 15C13.6569 15 15 13.6569 15 12C15 10.3431 13.6569 9 12 9C10.3431 9 9 10.3431 9 12C9 13.6569 10.3431 15 12 15Z" stroke="#353E50" stroke-width="1.5" stroke-linecap="round" stroke-linejoin="round"/>
<path d="M3.99994 7.47568C3.11384 9 3.40452 15.5 3.99994 16.5243C5 18.2448 10 21 11.9999 21C13.9999 21 19.1421 18 19.9999 16.5243C20.8577 15.0486 20.8577 8.95135 19.9999 7.47568C19.1422 5.99998 14 3 11.9999 3C9.99986 3 4.88604 5.95135 3.99994 7.47568Z" stroke="#353E50" stroke-width="1.5" stroke-linecap="round" stroke-linejoin="round"/>
</svg>
