<svg width="24" height="24" viewBox="0 0 24 24" fill="none" xmlns="http://www.w3.org/2000/svg">
<path d="M12 21C8.31 21 6 20.72 4.66 19.29C3.32 17.86 3 15.78 3 12C3 8.22 3.45 6 4.66 4.71C5.87 3.42 8.31 3 12 3C15.5 3 17.75 3.25 19.12 4.5C20.49 5.75 21 8 21 12C21 15.78 20.78 18 19.7 19.28C18.62 20.56 16.22 21 12 21Z" stroke="#353E50" stroke-width="1.5" stroke-miterlimit="10"/>
<path d="M9 4V9" stroke="#353E50" stroke-width="1.5" stroke-linecap="round" stroke-linejoin="round"/>
<path d="M15 4V9" stroke="#353E50" stroke-width="1.5" stroke-linecap="round" stroke-linejoin="round"/>
<path d="M3.31995 9.35986C3.57139 9.85425 3.95497 10.2693 4.42808 10.5588C4.90118 10.8483 5.44529 11.001 5.99995 10.9999" stroke="#353E50" stroke-width="1.5" stroke-linecap="round" stroke-linejoin="round"/>
<path d="M6 11C6.79565 11 7.55871 10.6839 8.12132 10.1213C8.68393 9.55871 9 8.79565 9 8" stroke="#353E50" stroke-width="1.5" stroke-linecap="round" stroke-linejoin="round"/>
<path d="M15 8C15 8.79565 15.3161 9.55871 15.8787 10.1213C16.4413 10.6839 17.2044 11 18 11" stroke="#353E50" stroke-width="1.5" stroke-linecap="round" stroke-linejoin="round"/>
<path d="M18 10.9998C18.5682 10.9992 19.1246 10.8372 19.6044 10.5327C20.0841 10.2282 20.4676 9.7937 20.71 9.27979" stroke="#353E50" stroke-width="1.5" stroke-linecap="round" stroke-linejoin="round"/>
<path d="M9 8C9 8.79565 9.31607 9.55871 9.87868 10.1213C10.4413 10.6839 11.2044 11 12 11" stroke="#353E50" stroke-width="1.5" stroke-linecap="round" stroke-linejoin="round"/>
<path d="M12 11C12.7956 11 13.5587 10.6839 14.1213 10.1213C14.6839 9.55871 15 8.79565 15 8" stroke="#353E50" stroke-width="1.5" stroke-linecap="round" stroke-linejoin="round"/>
<path d="M8 20C8 16.8 8 16 12 16C16 16 16 16.8 16 20" stroke="#353E50" stroke-width="1.5" stroke-linecap="round" stroke-linejoin="round"/>
</svg>
