<svg width="24" height="24" viewBox="0 0 24 24" fill="none" xmlns="http://www.w3.org/2000/svg">
<path d="M11.9999 21C7.02938 21 2.99994 16.9706 2.99994 12C2.99994 7.02944 7.02938 3 11.9999 3C15.3312 3 18.2398 4.80989 19.7959 7.5" stroke="#353E50" stroke-width="1.5" stroke-linecap="round" stroke-linejoin="round"/>
<path d="M11 13.6667V12.8333C11 12.3333 11.3 12 11.8 12H13.3C13.7 12 14 12.4167 14 12.8333V14.4167C14 14.6667 13.9 15 13.7 15.0833L11 17H14" stroke="#353E50" stroke-width="1.5" stroke-linecap="round" stroke-linejoin="round"/>
<path d="M17 12V14.25C17 14.7 17.4 15 18 15H19" stroke="#353E50" stroke-width="1.5" stroke-linecap="round" stroke-linejoin="round"/>
<path d="M20 12V17" stroke="#353E50" stroke-width="1.5" stroke-linecap="round" stroke-linejoin="round"/>
<path d="M20 3.5V7.5H16" stroke="#353E50" stroke-width="1.5" stroke-linecap="round" stroke-linejoin="round"/>
</svg>
