<svg width="24" height="24" viewBox="0 0 24 24" fill="none" xmlns="http://www.w3.org/2000/svg">
<path d="M20 10C20 13 18.4 15.6 16 16.9C16 16.9 15.75 19.5 15.5 20.5C15 22.5 9 22.5 8.5 20.5C8.24925 19.497 8 16.9 8 16.9C5.6 15.6 4 13 4 10C4 5.6 7.6 2 12 2C16.4 2 20 5.6 20 10Z" stroke="#353E50" stroke-width="1.5" stroke-miterlimit="10" stroke-linecap="round" stroke-linejoin="round"/>
<path d="M15 18.5C12.75 18.5 12 18.5 9 18.5" stroke="#353E50" stroke-width="1.5" stroke-miterlimit="10" stroke-linecap="round" stroke-linejoin="round"/>
<path d="M12.6667 7L10 10H14L11.3333 13" stroke="#353E50" stroke-width="1.5" stroke-linecap="round" stroke-linejoin="round"/>
</svg>
