<svg width="24" height="24" viewBox="0 0 24 24" fill="none" xmlns="http://www.w3.org/2000/svg">
<path d="M10 12H15" stroke="#353E50" stroke-width="1.5" stroke-linecap="round" stroke-linejoin="round"/>
<path d="M8 7H6C5.44772 7 5 7.44772 5 8V16C5 16.5523 5.44772 17 6 17H8C8.55228 17 9 16.5523 9 16V8C9 7.44772 8.55228 7 8 7Z" stroke="#353E50" stroke-width="1.5" stroke-linecap="round" stroke-linejoin="round"/>
<path d="M19 19V5C19 4.44772 18.5523 4 18 4H16C15.4477 4 15 4.44772 15 5V19C15 19.5523 15.4477 20 16 20H18C18.5523 20 19 19.5523 19 19Z" stroke="#353E50" stroke-width="1.5" stroke-linecap="round" stroke-linejoin="round"/>
<path d="M3 12H5" stroke="#353E50" stroke-width="1.5" stroke-linecap="round" stroke-linejoin="round"/>
<path d="M19 12H21" stroke="#353E50" stroke-width="1.5" stroke-linecap="round" stroke-linejoin="round"/>
</svg>
