<svg width="24" height="24" viewBox="0 0 24 24" fill="none" xmlns="http://www.w3.org/2000/svg">
<path d="M3 3H21" stroke="#353E50" stroke-width="1.5" stroke-linecap="round" stroke-linejoin="round"/>
<path d="M8 7H6C5.44772 7 5 7.44772 5 8V16C5 16.5523 5.44772 17 6 17H8C8.55228 17 9 16.5523 9 16V8C9 7.44772 8.55228 7 8 7Z" stroke="#353E50" stroke-width="1.5" stroke-linecap="round" stroke-linejoin="round"/>
<path d="M19 20V8C19 7.44772 18.5523 7 18 7H16C15.4477 7 15 7.44772 15 8V20C15 20.5523 15.4477 21 16 21H18C18.5523 21 19 20.5523 19 20Z" stroke="#353E50" stroke-width="1.5" stroke-linecap="round" stroke-linejoin="round"/>
</svg>
