<svg width="24" height="24" viewBox="0 0 24 24" fill="none" xmlns="http://www.w3.org/2000/svg">
<path d="M4 7.5C4 7.5 7.07692 5 12 5C12.6035 5 13.1793 5.03757 13.7251 5.10351M20 7.5C20 7.5 19.102 6.77036 17.5 6.09944" stroke="#353E50" stroke-width="1.5" stroke-linecap="round" stroke-linejoin="round"/>
<path d="M6 10.9998C6 10.9998 7.61512 9.60005 10.3049 9.14258M18 10.9998C18 10.9998 16.7038 9.87645 14.5 9.31355" stroke="#353E50" stroke-width="1.5" stroke-linecap="round" stroke-linejoin="round"/>
<path d="M9 14C9 14 10.1538 13 12 13C13.8462 13 15 14 15 14" stroke="#353E50" stroke-width="1.5" stroke-linecap="round" stroke-linejoin="round"/>
<path d="M12 18.5C12.2761 18.5 12.5 18.2761 12.5 18C12.5 17.7239 12.2761 17.5 12 17.5C11.7239 17.5 11.5 17.7239 11.5 18C11.5 18.2761 11.7239 18.5 12 18.5Z" fill="#353E50" stroke="#353E50" stroke-width="1.5" stroke-linecap="round" stroke-linejoin="round"/>
<path d="M4 19L20 3" stroke="#353E50" stroke-width="1.5" stroke-linecap="round" stroke-linejoin="round"/>
</svg>
